<svg width="35" height="37" viewBox="0 0 35 37" fill="none" xmlns="http://www.w3.org/2000/svg">
<path d="M0 18.2812C0 28.3772 7.82146 36.5625 17.4688 36.5625C27.116 36.5625 34.9375 28.3772 34.9375 18.2812C34.9375 8.18525 27.116 0 17.4688 0C7.82146 0 0 8.18525 0 18.2812ZM17.8593 10.2516C17.9846 10.3816 18.0842 10.5363 18.1524 10.7066C18.2206 10.877 18.256 11.0597 18.2567 11.2444C18.2574 11.4291 18.2234 11.6121 18.1565 11.7831C18.0896 11.954 17.9912 12.1094 17.8668 12.2405L13.4728 16.875H24.6914C25.0478 16.875 25.3896 17.0232 25.6416 17.2869C25.8936 17.5506 26.0352 17.9083 26.0352 18.2812C26.0352 18.6542 25.8936 19.0119 25.6416 19.2756C25.3896 19.5393 25.0478 19.6875 24.6914 19.6875H13.4728L17.8668 24.322C17.9911 24.4532 18.0895 24.6088 18.1564 24.7798C18.2232 24.9508 18.2572 25.1339 18.2564 25.3187C18.2557 25.5035 18.2201 25.6863 18.1518 25.8567C18.0835 26.0271 17.9838 26.1817 17.8584 26.3118C17.733 26.4419 17.5844 26.5449 17.421 26.6148C17.2575 26.6848 17.0826 26.7204 16.906 26.7195C16.7294 26.7187 16.5548 26.6815 16.3919 26.6101C16.2291 26.5386 16.0813 26.4343 15.957 26.303L9.28951 19.2718C9.03975 19.0084 8.89959 18.6523 8.89959 18.2812C8.89959 17.9102 9.03975 17.5541 9.28951 17.2907L15.957 10.2595C16.0813 10.1281 16.2292 10.0236 16.3921 9.95209C16.5551 9.88057 16.7299 9.84337 16.9066 9.84264C17.0833 9.8419 17.2584 9.87764 17.4218 9.94781C17.5853 10.018 17.734 10.1212 17.8593 10.2516Z" fill="black"/>
</svg>
